<?xml version="1.0" encoding="UTF-8" standalone="no"?>
<!DOCTYPE svg PUBLIC "-//W3C//DTD SVG 1.1//EN"
 "http://www.w3.org/Graphics/SVG/1.1/DTD/svg11.dtd">
<!-- Generated by graphviz version 16.1.0 (0)
 -->
<!-- Title: class_diagram Pages: 1 -->
<svg width="309pt" height="591pt"
 viewBox="0.00 0.00 309.00 591.00" xmlns="http://www.w3.org/2000/svg" xmlns:xlink="http://www.w3.org/1999/xlink">
<g id="graph0" class="graph" transform="scale(1 1) rotate(0) translate(4 586.5)">
<title>class_diagram</title>
<polygon fill="white" stroke="none" points="-4,4 -4,-586.5 305.38,-586.5 305.38,4 -4,4"/>
<!-- user -->
<g id="node1" class="node">
<title>user</title>
<polygon fill="white" stroke="black" stroke-width="1.5" points="235,-381.25 235,-442.25 295.25,-442.25 295.25,-381.25 235,-381.25"/>
<text xml:space="preserve" text-anchor="middle" x="265.12" y="-428.75" font-family="Helvetica,sans-Serif" font-size="10.00">User</text>
<polyline fill="none" stroke="black" stroke-width="1.5" points="235,-423 295.25,-423"/>
<text xml:space="preserve" text-anchor="start" x="243" y="-409.5" font-family="Helvetica,sans-Serif" font-size="10.00">name</text>
<text xml:space="preserve" text-anchor="start" x="243" y="-398.25" font-family="Helvetica,sans-Serif" font-size="10.00"> email</text>
<text xml:space="preserve" text-anchor="start" x="243" y="-387" font-family="Helvetica,sans-Serif" font-size="10.00"> password</text>
</g>
<!-- student -->
<g id="node2" class="node">
<title>student</title>
<polygon fill="white" stroke="black" stroke-width="1.5" points="60.88,-490.5 60.88,-582 153.38,-582 153.38,-490.5 60.88,-490.5"/>
<text xml:space="preserve" text-anchor="middle" x="107.12" y="-568.5" font-family="Helvetica,sans-Serif" font-size="10.00">Student</text>
<polyline fill="none" stroke="black" stroke-width="1.5" points="60.88,-562.75 153.38,-562.75"/>
<text xml:space="preserve" text-anchor="start" x="68.88" y="-549.25" font-family="Helvetica,sans-Serif" font-size="10.00">roll number</text>
<text xml:space="preserve" text-anchor="start" x="68.88" y="-538" font-family="Helvetica,sans-Serif" font-size="10.00"> semester</text>
<text xml:space="preserve" text-anchor="start" x="68.88" y="-526.75" font-family="Helvetica,sans-Serif" font-size="10.00"> program</text>
<polyline fill="none" stroke="black" stroke-width="1.5" points="60.88,-521 153.38,-521"/>
<text xml:space="preserve" text-anchor="start" x="68.88" y="-507.5" font-family="Helvetica,sans-Serif" font-size="10.00">+ submit project()</text>
<text xml:space="preserve" text-anchor="start" x="68.88" y="-496.25" font-family="Helvetica,sans-Serif" font-size="10.00">+ upload version()</text>
</g>
<!-- student&#45;&gt;user -->
<g id="edge1" class="edge">
<title>student&#45;&gt;user</title>
<path fill="none" stroke="black" d="M149.36,-489.81C160.37,-479.45 172.66,-469.06 185.12,-460.75 199.35,-451.26 206.76,-452.28 224.76,-442.9"/>
<polygon fill="none" stroke="black" points="226.23,-446.09 233.21,-438.11 222.78,-440 226.23,-446.09"/>
<text xml:space="preserve" text-anchor="middle" x="192.62" y="-462.5" font-family="Helvetica,sans-Serif" font-size="10.00">is a</text>
</g>
<!-- project -->
<g id="node4" class="node">
<title>project</title>
<polygon fill="white" stroke="black" stroke-width="1.5" points="45.75,-219 45.75,-333 110.5,-333 110.5,-219 45.75,-219"/>
<text xml:space="preserve" text-anchor="middle" x="78.12" y="-319.5" font-family="Helvetica,sans-Serif" font-size="10.00">Project</text>
<polyline fill="none" stroke="black" stroke-width="1.5" points="45.75,-313.75 110.5,-313.75"/>
<text xml:space="preserve" text-anchor="start" x="53.75" y="-300.25" font-family="Helvetica,sans-Serif" font-size="10.00">title</text>
<text xml:space="preserve" text-anchor="start" x="53.75" y="-289" font-family="Helvetica,sans-Serif" font-size="10.00"> abstract</text>
<text xml:space="preserve" text-anchor="start" x="53.75" y="-277.75" font-family="Helvetica,sans-Serif" font-size="10.00"> tech stack</text>
<text xml:space="preserve" text-anchor="start" x="53.75" y="-266.5" font-family="Helvetica,sans-Serif" font-size="10.00"> status</text>
<polyline fill="none" stroke="black" stroke-width="1.5" points="45.75,-260.75 110.5,-260.75"/>
<text xml:space="preserve" text-anchor="start" x="53.75" y="-247.25" font-family="Helvetica,sans-Serif" font-size="10.00">+ submit()</text>
<text xml:space="preserve" text-anchor="start" x="53.75" y="-236" font-family="Helvetica,sans-Serif" font-size="10.00">+ approve()</text>
<text xml:space="preserve" text-anchor="start" x="53.75" y="-224.75" font-family="Helvetica,sans-Serif" font-size="10.00">+ reject()</text>
</g>
<!-- student&#45;&gt;project -->
<g id="edge3" class="edge">
<title>student&#45;&gt;project</title>
<path fill="none" stroke="black" d="M86.16,-490.09C80.33,-475.33 74.8,-458.64 71.88,-442.75 65.98,-410.72 66.51,-374.63 68.95,-344.33"/>
<polygon fill="black" stroke="black" points="69.81,-334.66 73.4,-345.02 69.47,-338.43 68.92,-344.62 68.92,-344.62 68.92,-344.62 69.47,-338.43 64.44,-344.22 69.81,-334.66"/>
<text xml:space="preserve" text-anchor="middle" x="97" y="-407.88" font-family="Helvetica,sans-Serif" font-size="10.00">submits 1..*</text>
</g>
<!-- allocation -->
<g id="node6" class="node">
<title>allocation</title>
<polygon fill="white" stroke="black" stroke-width="1.5" points="130.88,-386.88 130.88,-436.62 217.38,-436.62 217.38,-386.88 130.88,-386.88"/>
<text xml:space="preserve" text-anchor="middle" x="174.12" y="-423.12" font-family="Helvetica,sans-Serif" font-size="10.00">Guide Allocation</text>
<polyline fill="none" stroke="black" stroke-width="1.5" points="130.88,-417.38 217.38,-417.38"/>
<text xml:space="preserve" text-anchor="start" x="138.88" y="-403.88" font-family="Helvetica,sans-Serif" font-size="10.00">allocated on</text>
<text xml:space="preserve" text-anchor="start" x="138.88" y="-392.62" font-family="Helvetica,sans-Serif" font-size="10.00"> status</text>
</g>
<!-- student&#45;&gt;allocation -->
<g id="edge5" class="edge">
<title>student&#45;&gt;allocation</title>
<path fill="none" stroke="black" d="M101.38,-489.88C101.85,-479.85 103.79,-469.59 108.38,-460.75 111.79,-454.18 116.55,-448.28 121.98,-443.06"/>
<polygon fill="black" stroke="black" points="129.4,-436.7 124.74,-446.62 126.53,-439.16 121.81,-443.21 121.81,-443.21 121.81,-443.21 126.53,-439.16 118.88,-439.79 129.4,-436.7"/>
<text xml:space="preserve" text-anchor="middle" x="126.75" y="-462.5" font-family="Helvetica,sans-Serif" font-size="10.00">receives</text>
</g>
<!-- faculty -->
<g id="node3" class="node">
<title>faculty</title>
<polygon fill="white" stroke="black" stroke-width="1.5" points="190.88,-490.5 190.88,-582 301.38,-582 301.38,-490.5 190.88,-490.5"/>
<text xml:space="preserve" text-anchor="middle" x="246.12" y="-568.5" font-family="Helvetica,sans-Serif" font-size="10.00">Faculty</text>
<polyline fill="none" stroke="black" stroke-width="1.5" points="190.88,-562.75 301.38,-562.75"/>
<text xml:space="preserve" text-anchor="start" x="198.88" y="-549.25" font-family="Helvetica,sans-Serif" font-size="10.00">employee id</text>
<text xml:space="preserve" text-anchor="start" x="198.88" y="-538" font-family="Helvetica,sans-Serif" font-size="10.00"> department</text>
<text xml:space="preserve" text-anchor="start" x="198.88" y="-526.75" font-family="Helvetica,sans-Serif" font-size="10.00"> max capacity</text>
<polyline fill="none" stroke="black" stroke-width="1.5" points="190.88,-521 301.38,-521"/>
<text xml:space="preserve" text-anchor="start" x="198.88" y="-507.5" font-family="Helvetica,sans-Serif" font-size="10.00">+ review submission()</text>
<text xml:space="preserve" text-anchor="start" x="198.88" y="-496.25" font-family="Helvetica,sans-Serif" font-size="10.00">+ approve or reject()</text>
</g>
<!-- faculty&#45;&gt;user -->
<g id="edge2" class="edge">
<title>faculty&#45;&gt;user</title>
<path fill="none" stroke="black" d="M253.15,-489.98C254.97,-478.23 256.92,-465.63 258.71,-454.08"/>
<polygon fill="none" stroke="black" points="262.13,-454.88 260.21,-444.46 255.22,-453.8 262.13,-454.88"/>
<text xml:space="preserve" text-anchor="middle" x="264.83" y="-462.5" font-family="Helvetica,sans-Serif" font-size="10.00">is a</text>
</g>
<!-- faculty&#45;&gt;allocation -->
<g id="edge6" class="edge">
<title>faculty&#45;&gt;allocation</title>
<path fill="none" stroke="black" d="M219.52,-489.98C211.07,-475.61 201.89,-459.98 194,-446.57"/>
<polygon fill="black" stroke="black" points="189.13,-438.29 198.08,-444.63 191.05,-441.55 194.2,-446.91 194.2,-446.91 194.2,-446.91 191.05,-441.55 190.32,-449.19 189.13,-438.29"/>
<text xml:space="preserve" text-anchor="middle" x="226.34" y="-462.5" font-family="Helvetica,sans-Serif" font-size="10.00">receives</text>
</g>
<!-- version -->
<g id="node5" class="node">
<title>version</title>
<polygon fill="white" stroke="black" stroke-width="1.5" points="0,-98.5 0,-170.75 102.25,-170.75 102.25,-98.5 0,-98.5"/>
<text xml:space="preserve" text-anchor="middle" x="51.12" y="-157.25" font-family="Helvetica,sans-Serif" font-size="10.00">Submission Version</text>
<polyline fill="none" stroke="black" stroke-width="1.5" points="0,-151.5 102.25,-151.5"/>
<text xml:space="preserve" text-anchor="start" x="8" y="-138" font-family="Helvetica,sans-Serif" font-size="10.00">version number</text>
<text xml:space="preserve" text-anchor="start" x="8" y="-126.75" font-family="Helvetica,sans-Serif" font-size="10.00"> file path</text>
<text xml:space="preserve" text-anchor="start" x="8" y="-115.5" font-family="Helvetica,sans-Serif" font-size="10.00"> uploaded on</text>
<text xml:space="preserve" text-anchor="start" x="8" y="-104.25" font-family="Helvetica,sans-Serif" font-size="10.00"> comments</text>
</g>
<!-- project&#45;&gt;version -->
<g id="edge4" class="edge">
<title>project&#45;&gt;version</title>
<path fill="none" stroke="black" d="M67.14,-218.31C64.94,-206.94 62.64,-195.08 60.5,-184.02"/>
<polygon fill="black" stroke="black" points="60.52,-184.14 55.45,-179.01 58.24,-172.36 63.31,-177.49 60.52,-184.14"/>
<text xml:space="preserve" text-anchor="middle" x="78.76" y="-191" font-family="Helvetica,sans-Serif" font-size="10.00">has 1..*</text>
</g>
<!-- evaluation -->
<g id="node7" class="node">
<title>evaluation</title>
<polygon fill="white" stroke="black" stroke-width="1.5" points="120.12,-104.12 120.12,-165.12 184.12,-165.12 184.12,-104.12 120.12,-104.12"/>
<text xml:space="preserve" text-anchor="middle" x="152.12" y="-151.62" font-family="Helvetica,sans-Serif" font-size="10.00">Evaluation</text>
<polyline fill="none" stroke="black" stroke-width="1.5" points="120.12,-145.88 184.12,-145.88"/>
<text xml:space="preserve" text-anchor="start" x="128.12" y="-132.38" font-family="Helvetica,sans-Serif" font-size="10.00">total marks</text>
<text xml:space="preserve" text-anchor="start" x="128.12" y="-121.12" font-family="Helvetica,sans-Serif" font-size="10.00"> feedback</text>
<text xml:space="preserve" text-anchor="start" x="128.12" y="-109.88" font-family="Helvetica,sans-Serif" font-size="10.00"> status</text>
</g>
<!-- project&#45;&gt;evaluation -->
<g id="edge8" class="edge">
<title>project&#45;&gt;evaluation</title>
<path fill="none" stroke="black" d="M108.22,-218.31C115.88,-203.9 123.94,-188.71 131.03,-175.35"/>
<polygon fill="black" stroke="black" points="135.68,-166.6 134.96,-177.54 133.91,-169.94 130.99,-175.43 130.99,-175.43 130.99,-175.43 133.91,-169.94 127.01,-173.32 135.68,-166.6"/>
<text xml:space="preserve" text-anchor="middle" x="139" y="-191" font-family="Helvetica,sans-Serif" font-size="10.00">gets 1..*</text>
</g>
<!-- allocation&#45;&gt;project -->
<g id="edge7" class="edge">
<title>allocation&#45;&gt;project</title>
<path fill="none" stroke="black" d="M156.52,-386.22C145.63,-371.05 131.2,-350.95 117.7,-332.13"/>
<polygon fill="black" stroke="black" points="111.87,-324.01 121.36,-329.51 114.07,-327.09 117.7,-332.14 117.7,-332.14 117.7,-332.14 114.07,-327.09 114.04,-334.76 111.87,-324.01"/>
<text xml:space="preserve" text-anchor="middle" x="143.17" y="-353.25" font-family="Helvetica,sans-Serif" font-size="10.00">for</text>
</g>
<!-- rubric -->
<g id="node8" class="node">
<title>rubric</title>
<polygon fill="white" stroke="black" stroke-width="1.5" points="125.12,-0.5 125.12,-50.25 179.12,-50.25 179.12,-0.5 125.12,-0.5"/>
<text xml:space="preserve" text-anchor="middle" x="151.88" y="-36.75" font-family="Helvetica,sans-Serif" font-size="10.00">Rubric</text>
<polyline fill="none" stroke="black" stroke-width="1.5" points="125.12,-31 178.62,-31"/>
<text xml:space="preserve" text-anchor="start" x="133.12" y="-17.5" font-family="Helvetica,sans-Serif" font-size="10.00">name</text>
<text xml:space="preserve" text-anchor="start" x="133.12" y="-6.25" font-family="Helvetica,sans-Serif" font-size="10.00"> criteria</text>
</g>
<!-- evaluation&#45;&gt;rubric -->
<g id="edge9" class="edge">
<title>evaluation&#45;&gt;rubric</title>
<path fill="none" stroke="black" d="M152.12,-103.46C152.12,-90.49 152.12,-75.24 152.12,-61.74"/>
<polygon fill="black" stroke="black" points="152.13,-52.12 156.63,-62.12 152.13,-55.9 152.13,-62.12 152.13,-62.12 152.13,-62.12 152.13,-55.9 147.63,-62.12 152.13,-52.12"/>
<text xml:space="preserve" text-anchor="middle" x="162.62" y="-70.5" font-family="Helvetica,sans-Serif" font-size="10.00">uses</text>
</g>
</g>
</svg>
