<?xml version="1.0" encoding="UTF-8" standalone="no"?>
<!DOCTYPE svg PUBLIC "-//W3C//DTD SVG 1.1//EN"
 "http://www.w3.org/Graphics/SVG/1.1/DTD/svg11.dtd">
<!-- Generated by graphviz version 16.1.0 (0)
 -->
<!-- Title: comm_evaluation Pages: 1 -->
<svg width="451pt" height="121pt"
 viewBox="0.00 0.00 451.00 121.00" xmlns="http://www.w3.org/2000/svg" xmlns:xlink="http://www.w3.org/1999/xlink">
<g id="graph0" class="graph" transform="scale(1 1) rotate(0) translate(4 117.09)">
<title>comm_evaluation</title>
<polygon fill="white" stroke="none" points="-4,4 -4,-117.09 446.5,-117.09 446.5,4 -4,4"/>
<!-- e -->
<g id="node1" class="node">
<title>e</title>
<path fill="white" stroke="black" stroke-width="1.5" d="M49,-87C49,-87 12,-87 12,-87 6,-87 0,-81 0,-75 0,-75 0,-63 0,-63 0,-57 6,-51 12,-51 12,-51 49,-51 49,-51 55,-51 61,-57 61,-63 61,-63 61,-75 61,-75 61,-81 55,-87 49,-87"/>
<text xml:space="preserve" text-anchor="middle" x="30.5" y="-64.92" font-family="Helvetica,sans-Serif" font-size="11.00">Evaluator</text>
</g>
<!-- svc -->
<g id="node2" class="node">
<title>svc</title>
<path fill="white" stroke="black" stroke-width="1.5" d="M261.5,-87C261.5,-87 181,-87 181,-87 175,-87 169,-81 169,-75 169,-75 169,-63 169,-63 169,-57 175,-51 181,-51 181,-51 261.5,-51 261.5,-51 267.5,-51 273.5,-57 273.5,-63 273.5,-63 273.5,-75 273.5,-75 273.5,-81 267.5,-87 261.5,-87"/>
<text xml:space="preserve" text-anchor="middle" x="221.25" y="-64.92" font-family="Helvetica,sans-Serif" font-size="11.00">Evaluation Service</text>
</g>
<!-- e&#45;&gt;svc -->
<g id="edge1" class="edge">
<title>e&#45;&gt;svc</title>
<path fill="none" stroke="black" d="M72.81,-80.08C74.9,-80.44 76.97,-80.75 79,-81 110.76,-84.95 119.12,-83.74 151,-81 153.14,-80.82 155.32,-80.6 157.51,-80.36"/>
<polygon fill="black" stroke="black" points="73.68,-76.68 63.18,-78.12 72.28,-83.54 73.68,-76.68"/>
<polygon fill="black" stroke="black" points="167.36,-79.11 158.01,-84.83 163.61,-79.58 157.44,-80.37 157.44,-80.37 157.44,-80.37 163.61,-79.58 156.87,-75.9 167.36,-79.11"/>
<text xml:space="preserve" text-anchor="middle" x="115" y="-85.28" font-family="Helvetica,sans-Serif" font-size="10.00">1. open assigned</text>
</g>
<!-- e&#45;&gt;svc -->
<g id="edge5" class="edge">
<title>e&#45;&gt;svc</title>
<path fill="none" stroke="black" d="M73.11,-67.84C75.1,-67.81 77.07,-67.78 79,-67.75 111,-67.33 119,-67.46 151,-67.75 153.12,-67.77 155.27,-67.79 157.45,-67.82"/>
<polygon fill="black" stroke="black" points="73.09,-64.34 63.16,-68.05 73.24,-71.34 73.09,-64.34"/>
<polygon fill="black" stroke="black" points="167.23,-67.95 157.17,-72.31 163.45,-67.9 157.23,-67.81 157.23,-67.81 157.23,-67.81 163.45,-67.9 157.29,-63.31 167.23,-67.95"/>
<text xml:space="preserve" text-anchor="middle" x="115" y="-69.5" font-family="Helvetica,sans-Serif" font-size="10.00">5. submit marks</text>
</g>
<!-- svc&#45;&gt;e -->
<g id="edge4" class="edge">
<title>svc&#45;&gt;e</title>
<path fill="none" stroke="black" d="M178.82,-45.44C169.9,-41.43 160.35,-37.88 151,-35.75 119.8,-28.65 109.52,-26.13 79,-35.75 72.85,-37.69 66.8,-40.74 61.19,-44.22"/>
<polygon fill="black" stroke="black" points="177.04,-48.47 187.57,-49.65 180.07,-42.16 177.04,-48.47"/>
<polygon fill="black" stroke="black" points="53.23,-49.69 58.93,-40.32 56.35,-47.55 61.47,-44.03 61.47,-44.03 61.47,-44.03 56.35,-47.55 64.02,-47.74 53.23,-49.69"/>
<text xml:space="preserve" text-anchor="middle" x="115" y="-37.5" font-family="Helvetica,sans-Serif" font-size="10.00">4. display</text>
</g>
<!-- db -->
<g id="node3" class="node">
<title>db</title>
<path fill="white" stroke="black" stroke-width="1.5" d="M442.5,-100.73C442.5,-102.53 428.66,-104 411.62,-104 394.59,-104 380.75,-102.53 380.75,-100.73 380.75,-100.73 380.75,-71.27 380.75,-71.27 380.75,-69.47 394.59,-68 411.62,-68 428.66,-68 442.5,-69.47 442.5,-71.27 442.5,-71.27 442.5,-100.73 442.5,-100.73"/>
<path fill="none" stroke="black" stroke-width="1.5" d="M442.5,-100.73C442.5,-98.92 428.66,-97.45 411.62,-97.45 394.59,-97.45 380.75,-98.92 380.75,-100.73"/>
<text xml:space="preserve" text-anchor="middle" x="411.62" y="-81.92" font-family="Helvetica,sans-Serif" font-size="11.00">Database</text>
</g>
<!-- svc&#45;&gt;db -->
<g id="edge2" class="edge">
<title>svc&#45;&gt;db</title>
<path fill="none" stroke="black" d="M269.74,-91.75C276.89,-94.33 284.29,-96.55 291.5,-98 322.55,-104.24 331.32,-101.88 362.75,-98 364.89,-97.74 367.07,-97.41 369.26,-97.03"/>
<polygon fill="black" stroke="black" points="271.13,-88.54 260.54,-88.16 268.58,-95.06 271.13,-88.54"/>
<polygon fill="black" stroke="black" points="378.99,-95.06 370.09,-101.46 375.29,-95.81 369.19,-97.05 369.19,-97.05 369.19,-97.05 375.29,-95.81 368.3,-92.64 378.99,-95.06"/>
<text xml:space="preserve" text-anchor="middle" x="327.12" y="-103.59" font-family="Helvetica,sans-Serif" font-size="10.00">2. load projects</text>
</g>
<!-- svc&#45;&gt;db -->
<g id="edge6" class="edge">
<title>svc&#45;&gt;db</title>
<path fill="none" stroke="black" d="M285.29,-74.69C312.92,-77.18 344.58,-80.04 369.17,-82.26"/>
<polygon fill="black" stroke="black" points="286,-71.24 275.73,-73.83 285.38,-78.21 286,-71.24"/>
<polygon fill="black" stroke="black" points="379.06,-83.15 368.7,-86.73 375.29,-82.81 369.1,-82.25 369.1,-82.25 369.1,-82.25 375.29,-82.81 369.5,-77.77 379.06,-83.15"/>
<text xml:space="preserve" text-anchor="middle" x="327.12" y="-83.19" font-family="Helvetica,sans-Serif" font-size="10.00">6. save marks</text>
</g>
<!-- s -->
<g id="node4" class="node">
<title>s</title>
<path fill="white" stroke="black" stroke-width="1.5" d="M426.62,-36C426.62,-36 396.62,-36 396.62,-36 390.62,-36 384.62,-30 384.62,-24 384.62,-24 384.62,-12 384.62,-12 384.62,-6 390.62,0 396.62,0 396.62,0 426.62,0 426.62,0 432.62,0 438.62,-6 438.62,-12 438.62,-12 438.62,-24 438.62,-24 438.62,-30 432.62,-36 426.62,-36"/>
<text xml:space="preserve" text-anchor="middle" x="411.62" y="-13.93" font-family="Helvetica,sans-Serif" font-size="11.00">Student</text>
</g>
<!-- svc&#45;&gt;s -->
<g id="edge7" class="edge">
<title>svc&#45;&gt;s</title>
<path fill="none" stroke="black" d="M261.18,-44.75C270.79,-39.71 281.27,-34.96 291.5,-31.75 317.96,-23.44 349.13,-20.06 372.96,-18.72"/>
<polygon fill="black" stroke="black" points="259.55,-41.66 252.48,-49.55 262.93,-47.79 259.55,-41.66"/>
<polygon fill="black" stroke="black" points="382.79,-18.27 373,-23.22 379.01,-18.45 372.8,-18.73 372.8,-18.73 372.8,-18.73 379.01,-18.45 372.59,-14.23 382.79,-18.27"/>
<text xml:space="preserve" text-anchor="middle" x="327.12" y="-33.5" font-family="Helvetica,sans-Serif" font-size="10.00">7. inform student</text>
</g>
<!-- db&#45;&gt;svc -->
<g id="edge3" class="edge">
<title>db&#45;&gt;svc</title>
<path fill="none" stroke="black" d="M381.02,-61.43C375.27,-57.86 369.06,-54.73 362.75,-52.75 337.85,-44.95 309.41,-46.43 284.66,-50.82"/>
<polygon fill="black" stroke="black" points="378.71,-64.1 388.94,-66.87 382.68,-58.33 378.71,-64.1"/>
<polygon fill="black" stroke="black" points="275.13,-52.71 284.07,-46.35 278.84,-51.97 284.94,-50.77 284.94,-50.77 284.94,-50.77 278.84,-51.97 285.82,-55.18 275.13,-52.71"/>
<text xml:space="preserve" text-anchor="middle" x="327.12" y="-54.5" font-family="Helvetica,sans-Serif" font-size="10.00">3. return list</text>
</g>
</g>
</svg>
