<?xml version="1.0" encoding="UTF-8" standalone="no"?>
<!DOCTYPE svg PUBLIC "-//W3C//DTD SVG 1.1//EN"
 "http://www.w3.org/Graphics/SVG/1.1/DTD/svg11.dtd">
<!-- Generated by graphviz version 16.1.0 (0)
 -->
<!-- Title: er_diagram Pages: 1 -->
<svg width="417pt" height="412pt"
 viewBox="0.00 0.00 417.00 412.00" xmlns="http://www.w3.org/2000/svg" xmlns:xlink="http://www.w3.org/1999/xlink">
<g id="graph0" class="graph" transform="scale(1 1) rotate(0) translate(4 408.25)">
<title>er_diagram</title>
<polygon fill="white" stroke="none" points="-4,4 -4,-408.25 413.38,-408.25 413.38,4 -4,4"/>
<!-- users -->
<g id="node1" class="node">
<title>users</title>
<path fill="white" stroke="black" stroke-width="1.5" d="M130.88,-309C130.88,-309 185.12,-309 185.12,-309 191.12,-309 197.12,-315 197.12,-321 197.12,-321 197.12,-391.75 197.12,-391.75 197.12,-397.75 191.12,-403.75 185.12,-403.75 185.12,-403.75 130.88,-403.75 130.88,-403.75 124.88,-403.75 118.88,-397.75 118.88,-391.75 118.88,-391.75 118.88,-321 118.88,-321 118.88,-315 124.88,-309 130.88,-309"/>
<text xml:space="preserve" text-anchor="middle" x="158" y="-390.25" font-family="Helvetica,sans-Serif" font-size="10.00">users</text>
<polyline fill="none" stroke="black" stroke-width="1.5" points="118.88,-384.5 197.12,-384.5"/>
<text xml:space="preserve" text-anchor="start" x="126.88" y="-371" font-family="Helvetica,sans-Serif" font-size="10.00">id (PK)</text>
<text xml:space="preserve" text-anchor="start" x="126.88" y="-359.75" font-family="Helvetica,sans-Serif" font-size="10.00"> name</text>
<text xml:space="preserve" text-anchor="start" x="126.88" y="-348.5" font-family="Helvetica,sans-Serif" font-size="10.00"> email (unique)</text>
<text xml:space="preserve" text-anchor="start" x="126.88" y="-337.25" font-family="Helvetica,sans-Serif" font-size="10.00"> password</text>
<text xml:space="preserve" text-anchor="start" x="126.88" y="-326" font-family="Helvetica,sans-Serif" font-size="10.00"> role</text>
<text xml:space="preserve" text-anchor="start" x="126.88" y="-314.75" font-family="Helvetica,sans-Serif" font-size="10.00"> created on</text>
</g>
<!-- projects -->
<g id="node2" class="node">
<title>projects</title>
<path fill="white" stroke="black" stroke-width="1.5" d="M129.38,-143.5C129.38,-143.5 186.62,-143.5 186.62,-143.5 192.62,-143.5 198.62,-149.5 198.62,-155.5 198.62,-155.5 198.62,-248.75 198.62,-248.75 198.62,-254.75 192.62,-260.75 186.62,-260.75 186.62,-260.75 129.38,-260.75 129.38,-260.75 123.38,-260.75 117.38,-254.75 117.38,-248.75 117.38,-248.75 117.38,-155.5 117.38,-155.5 117.38,-149.5 123.38,-143.5 129.38,-143.5"/>
<text xml:space="preserve" text-anchor="middle" x="158" y="-247.25" font-family="Helvetica,sans-Serif" font-size="10.00">projects</text>
<polyline fill="none" stroke="black" stroke-width="1.5" points="117.38,-241.5 198.62,-241.5"/>
<text xml:space="preserve" text-anchor="start" x="125.38" y="-228" font-family="Helvetica,sans-Serif" font-size="10.00">id (PK)</text>
<text xml:space="preserve" text-anchor="start" x="125.38" y="-216.75" font-family="Helvetica,sans-Serif" font-size="10.00"> student id (FK)</text>
<text xml:space="preserve" text-anchor="start" x="125.38" y="-205.5" font-family="Helvetica,sans-Serif" font-size="10.00"> title</text>
<text xml:space="preserve" text-anchor="start" x="125.38" y="-194.25" font-family="Helvetica,sans-Serif" font-size="10.00"> abstract text</text>
<text xml:space="preserve" text-anchor="start" x="125.38" y="-183" font-family="Helvetica,sans-Serif" font-size="10.00"> tech stack</text>
<text xml:space="preserve" text-anchor="start" x="125.38" y="-171.75" font-family="Helvetica,sans-Serif" font-size="10.00"> status</text>
<text xml:space="preserve" text-anchor="start" x="125.38" y="-160.5" font-family="Helvetica,sans-Serif" font-size="10.00"> created on</text>
<text xml:space="preserve" text-anchor="start" x="125.38" y="-149.25" font-family="Helvetica,sans-Serif" font-size="10.00"> updated on</text>
</g>
<!-- users&#45;&gt;projects -->
<g id="edge1" class="edge">
<title>users&#45;&gt;projects</title>
<path fill="none" stroke="black" d="M158,-308.45C158,-293.6 158,-277 158,-261.45"/>
<text xml:space="preserve" text-anchor="middle" x="183.88" y="-281" font-family="Helvetica,sans-Serif" font-size="10.00">1 submits N</text>
</g>
<!-- allocs -->
<g id="node4" class="node">
<title>allocs</title>
<path fill="white" stroke="black" stroke-width="1.5" d="M12,-6.12C12,-6.12 76,-6.12 76,-6.12 82,-6.12 88,-12.12 88,-18.12 88,-18.12 88,-77.62 88,-77.62 88,-83.62 82,-89.62 76,-89.62 76,-89.62 12,-89.62 12,-89.62 6,-89.62 0,-83.62 0,-77.62 0,-77.62 0,-18.12 0,-18.12 0,-12.12 6,-6.12 12,-6.12"/>
<text xml:space="preserve" text-anchor="middle" x="44" y="-76.12" font-family="Helvetica,sans-Serif" font-size="10.00">guide allocations</text>
<polyline fill="none" stroke="black" stroke-width="1.5" points="0,-70.38 88,-70.38"/>
<text xml:space="preserve" text-anchor="start" x="8" y="-56.88" font-family="Helvetica,sans-Serif" font-size="10.00">id (PK)</text>
<text xml:space="preserve" text-anchor="start" x="8" y="-45.62" font-family="Helvetica,sans-Serif" font-size="10.00"> student id (FK)</text>
<text xml:space="preserve" text-anchor="start" x="8" y="-34.38" font-family="Helvetica,sans-Serif" font-size="10.00"> faculty id (FK)</text>
<text xml:space="preserve" text-anchor="start" x="8" y="-23.12" font-family="Helvetica,sans-Serif" font-size="10.00"> project id (FK)</text>
<text xml:space="preserve" text-anchor="start" x="8" y="-11.88" font-family="Helvetica,sans-Serif" font-size="10.00"> status</text>
</g>
<!-- users&#45;&gt;allocs -->
<g id="edge3" class="edge">
<title>users&#45;&gt;allocs</title>
<path fill="none" stroke="black" d="M118.25,-322.17C101.19,-305.66 82.74,-284.33 72,-261.25 46.26,-205.96 42.01,-134.35 42.28,-90.02"/>
<text xml:space="preserve" text-anchor="middle" x="90" y="-198.25" font-family="Helvetica,sans-Serif" font-size="10.00">1 gets N</text>
</g>
<!-- evals -->
<g id="node5" class="node">
<title>evals</title>
<path fill="white" stroke="black" stroke-width="1.5" d="M240.62,-0.5C240.62,-0.5 305.38,-0.5 305.38,-0.5 311.38,-0.5 317.38,-6.5 317.38,-12.5 317.38,-12.5 317.38,-83.25 317.38,-83.25 317.38,-89.25 311.38,-95.25 305.38,-95.25 305.38,-95.25 240.62,-95.25 240.62,-95.25 234.62,-95.25 228.62,-89.25 228.62,-83.25 228.62,-83.25 228.62,-12.5 228.62,-12.5 228.62,-6.5 234.62,-0.5 240.62,-0.5"/>
<text xml:space="preserve" text-anchor="middle" x="273" y="-81.75" font-family="Helvetica,sans-Serif" font-size="10.00">evaluations</text>
<polyline fill="none" stroke="black" stroke-width="1.5" points="228.62,-76 317.38,-76"/>
<text xml:space="preserve" text-anchor="start" x="236.62" y="-62.5" font-family="Helvetica,sans-Serif" font-size="10.00">id (PK)</text>
<text xml:space="preserve" text-anchor="start" x="236.62" y="-51.25" font-family="Helvetica,sans-Serif" font-size="10.00"> project id (FK)</text>
<text xml:space="preserve" text-anchor="start" x="236.62" y="-40" font-family="Helvetica,sans-Serif" font-size="10.00"> evaluator id (FK)</text>
<text xml:space="preserve" text-anchor="start" x="236.62" y="-28.75" font-family="Helvetica,sans-Serif" font-size="10.00"> rubric id (FK)</text>
<text xml:space="preserve" text-anchor="start" x="236.62" y="-17.5" font-family="Helvetica,sans-Serif" font-size="10.00"> total marks</text>
<text xml:space="preserve" text-anchor="start" x="236.62" y="-6.25" font-family="Helvetica,sans-Serif" font-size="10.00"> feedback</text>
</g>
<!-- users&#45;&gt;evals -->
<g id="edge7" class="edge">
<title>users&#45;&gt;evals</title>
<path fill="none" stroke="black" d="M197.6,-315.28C203.78,-307.51 209.57,-299.1 214,-290.5 246.44,-227.55 261.53,-146.09 268.19,-95.67"/>
<text xml:space="preserve" text-anchor="middle" x="281.84" y="-198.25" font-family="Helvetica,sans-Serif" font-size="10.00">1 writes N</text>
</g>
<!-- versions -->
<g id="node3" class="node">
<title>versions</title>
<path fill="white" stroke="black" stroke-width="1.5" d="M117.75,-6.12C117.75,-6.12 198.25,-6.12 198.25,-6.12 204.25,-6.12 210.25,-12.12 210.25,-18.12 210.25,-18.12 210.25,-77.62 210.25,-77.62 210.25,-83.62 204.25,-89.62 198.25,-89.62 198.25,-89.62 117.75,-89.62 117.75,-89.62 111.75,-89.62 105.75,-83.62 105.75,-77.62 105.75,-77.62 105.75,-18.12 105.75,-18.12 105.75,-12.12 111.75,-6.12 117.75,-6.12"/>
<text xml:space="preserve" text-anchor="middle" x="158" y="-76.12" font-family="Helvetica,sans-Serif" font-size="10.00">submission versions</text>
<polyline fill="none" stroke="black" stroke-width="1.5" points="105.75,-70.38 210.25,-70.38"/>
<text xml:space="preserve" text-anchor="start" x="113.75" y="-56.88" font-family="Helvetica,sans-Serif" font-size="10.00">id (PK)</text>
<text xml:space="preserve" text-anchor="start" x="113.75" y="-45.62" font-family="Helvetica,sans-Serif" font-size="10.00"> project id (FK)</text>
<text xml:space="preserve" text-anchor="start" x="113.75" y="-34.38" font-family="Helvetica,sans-Serif" font-size="10.00"> version no</text>
<text xml:space="preserve" text-anchor="start" x="113.75" y="-23.12" font-family="Helvetica,sans-Serif" font-size="10.00"> file path</text>
<text xml:space="preserve" text-anchor="start" x="113.75" y="-11.88" font-family="Helvetica,sans-Serif" font-size="10.00"> uploaded on</text>
</g>
<!-- projects&#45;&gt;versions -->
<g id="edge2" class="edge">
<title>projects&#45;&gt;versions</title>
<path fill="none" stroke="black" d="M158,-143.13C158,-125.48 158,-106.46 158,-90.15"/>
<text xml:space="preserve" text-anchor="middle" x="174.5" y="-115.5" font-family="Helvetica,sans-Serif" font-size="10.00">1 has N</text>
</g>
<!-- projects&#45;&gt;allocs -->
<g id="edge4" class="edge">
<title>projects&#45;&gt;allocs</title>
<path fill="none" stroke="black" d="M116.84,-146.16C102.94,-127.59 87.67,-107.2 74.72,-89.9"/>
<text xml:space="preserve" text-anchor="middle" x="116.38" y="-115.5" font-family="Helvetica,sans-Serif" font-size="10.00">1 has 1</text>
</g>
<!-- projects&#45;&gt;evals -->
<g id="edge5" class="edge">
<title>projects&#45;&gt;evals</title>
<path fill="none" stroke="black" d="M194.2,-142.93C200.86,-133.01 207.95,-122.95 215,-113.75 219.59,-107.75 224.61,-101.62 229.7,-95.64"/>
<text xml:space="preserve" text-anchor="middle" x="233" y="-115.5" font-family="Helvetica,sans-Serif" font-size="10.00">1 gets N</text>
</g>
<!-- rubrics -->
<g id="node6" class="node">
<title>rubrics</title>
<path fill="white" stroke="black" stroke-width="1.5" d="M338.62,-171.62C338.62,-171.62 397.38,-171.62 397.38,-171.62 403.38,-171.62 409.38,-177.62 409.38,-183.62 409.38,-183.62 409.38,-220.62 409.38,-220.62 409.38,-226.62 403.38,-232.62 397.38,-232.62 397.38,-232.62 338.62,-232.62 338.62,-232.62 332.62,-232.62 326.62,-226.62 326.62,-220.62 326.62,-220.62 326.62,-183.62 326.62,-183.62 326.62,-177.62 332.62,-171.62 338.62,-171.62"/>
<text xml:space="preserve" text-anchor="middle" x="368" y="-219.12" font-family="Helvetica,sans-Serif" font-size="10.00">rubrics</text>
<polyline fill="none" stroke="black" stroke-width="1.5" points="326.62,-213.38 409.38,-213.38"/>
<text xml:space="preserve" text-anchor="start" x="334.62" y="-199.88" font-family="Helvetica,sans-Serif" font-size="10.00">id (PK)</text>
<text xml:space="preserve" text-anchor="start" x="334.62" y="-188.62" font-family="Helvetica,sans-Serif" font-size="10.00"> name</text>
<text xml:space="preserve" text-anchor="start" x="334.62" y="-177.38" font-family="Helvetica,sans-Serif" font-size="10.00"> criteria (JSON)</text>
</g>
<!-- rubrics&#45;&gt;evals -->
<g id="edge6" class="edge">
<title>rubrics&#45;&gt;evals</title>
<path fill="none" stroke="black" d="M349.23,-171.05C335.87,-149.64 317.66,-120.45 302.39,-95.98"/>
<text xml:space="preserve" text-anchor="middle" x="344.5" y="-115.5" font-family="Helvetica,sans-Serif" font-size="10.00">1 used in N</text>
</g>
</g>
</svg>
